<?xml version="1.0" encoding="UTF-8"?>
<svg version="1.1" viewBox="0 0 734.37 293.46" xmlns="http://www.w3.org/2000/svg"><g transform="translate(76.919 -4.9078)" stroke-width="0"><path d="m114.51 145.67h63.697v18.835h15.411v-18.835h14.726v-14.041h-14.726v-101.71zm63.355-67.293h.34246v53.252h-36.643z" fill="#2d8afb"/><g transform="translate(-20,-2)"><path d="m-14.283 34.655c-22.602 0-37.842 14.041-40.924 38.355h16.096c1.3698-14.383 12.671-23.63 24.828-23.63 13.013 0 25.342 10.787 25.342 24.657 0 6.1642-2.3972 12.157-11.815 23.63l-56.163 68.834h83.389v-14.726h-52.054l42.465-51.882c5.6506-6.8492 9.5888-16.78 9.5888-26.54 0-22.773-19.006-38.698-40.753-38.698z" fill="#2d8afb"/><path d="m-14.282 34.655c-22.602 0-37.842 14.041-40.924 38.355h16.096c1.3473-14.147 12.305-23.304 24.232-23.602l12.969-12.969c-3.9376-1.1606-8.1006-1.7852-12.373-1.7852z" fill="#e4a8ca"/></g><g transform="translate(-20,-2)"><path d="m84.859 34.655c-21.917 0-34.588 11.644-37.842 32.534h15.924c1.8835-11.13 9.7601-18.493 21.404-18.493 13.013 0 22.431 9.2464 22.431 22.089 0 13.527-8.7327 20.719-25.342 20.719v13.356c1.1986 0 2.226-.17123 2.9109-.17123 14.554 0 24.315 10.274 24.315 25.171 0 14.554-10.616 25.342-24.657 25.342-12.5 0-23.458-8.0478-24.999-20.547h-15.582c1.0274 20.547 18.322 34.588 39.383 34.588 24.657 0 41.266-15.924 41.266-38.698 0-12.5-4.9656-25.856-18.322-32.02 10.959-6.1642 16.438-16.267 16.438-29.109 0-20.719-15.924-34.759-37.328-34.759z" fill="#2d8afb"/><path d="m84.858 34.655c-21.917 0-34.588 11.645-37.842 32.535h15.924c1.7518-10.351 8.6927-17.437 19.021-18.379l13.025-13.025c-3.196-.7364-6.5851-1.1309-10.129-1.1309z" fill="#e4a8ca"/></g><g transform="translate(-20,-2)"><path d="m324.58 123.35c0-24.999-17.637-45.204-41.095-45.204-1.3698 0-6.3355.34246-9.4176.51369l8.0478-26.54h40.581v-14.726h-51.711l-19.863 66.266h3.0821c5.6506-7.1916 15.068-11.472 24.143-11.472 15.924 0 30.821 13.356 30.821 30.65 0 17.123-13.698 31.677-31.164 31.677-11.301 0-24.315-7.8765-28.595-19.178l-11.986 11.301c7.3628 14.383 23.972 22.602 39.383 22.602" fill="#2d8afb"/><path d="m270.98 37.395-14.525 48.461 22.141-22.141 3.5156-11.594h8.0781l14.727-14.727z" fill="#e4a8ca"/></g><g><path d="m341.44 246.12v-99.535h16.181v85.053h36.17l-14.482 14.482z" fill="#2d8afb"/><path d="m341.44 146.58v19.885l16.182-16.182v-3.7031z" fill="#e4a8ca"/></g><g><path d="m455.8 248.77c-8.1586 0-15.433-1.2011-21.824-3.6034s-11.989-6.0283-16.793-10.878c-4.7138-4.8045-8.3399-10.448-10.878-16.929-2.4929-6.4816-3.7394-13.416-3.7394-20.804 0-7.524 1.2691-14.459 3.8074-20.804 2.5836-6.3456 6.3909-11.943 11.422-16.793 4.8498-4.7592 10.538-8.3852 17.065-10.878 6.5269-2.4929 13.507-3.7394 20.94-3.7394 7.8413 0 14.844 1.4278 21.008 4.2833 6.2096 2.8555 11.739 7.2294 16.589 13.122l-11.83 8.9065c-3.3541-3.898-7.1388-6.7988-11.354-8.7025s-8.9291-2.8555-14.142-2.8555c-10.787 0-19.603 3.4674-26.447 10.402-6.7988 6.8895-10.198 15.864-10.198 26.923 0 11.241 3.3994 20.374 10.198 27.399 6.8442 6.9801 15.705 10.47 26.583 10.47 9.2464 0 16.521-2.153 21.824-6.4589s7.9546-10.176 7.9546-17.609v-1.4278h-23.932l-1e-5-13.666h39.433c0 .67988.0227 1.6317.068 2.8555.13597 3.2181.20396 9.3937.20396 10.527" fill="#2d8afb"/><path d="m455.36 144.35c-7.2689.0483-14.106 1.2849-20.504 3.7285-6.5269 2.4929-12.215 6.1197-17.064 10.879-5.0311 4.8498-8.8383 10.447-11.422 16.793-2.5382 6.3456-3.8066 13.281-3.8066 20.805 0 .19493.01.38577.0117.58007l23.691-23.691c1.008-1.3838 2.1247-2.702 3.3555-3.9492 1.3533-1.3712 2.7875-2.6011 4.2949-3.7012z" fill="#e4a8ca"/></g><g><path d="m534.6 188.6h6.1869c7.7053 0 13.144-1.0425 16.317-3.1275 3.2181-2.1303 4.8272-5.6884 4.8272-10.674 0-5.4391-1.4731-9.2464-4.4192-11.422-2.9462-2.221-8.5212-3.3314-16.725-3.3314h-6.1869zm0 43.988h5.575c5.6657 0 9.9036-.22663 12.714-.67988s5.0311-1.2464 6.6628-2.3796c1.9943-1.3144 3.5354-3.0821 4.6232-5.3031s1.6317-4.6685 1.6317-7.3427c0-3.1728-.65722-5.9376-1.9717-8.2946-1.3144-2.3569-3.1955-4.1926-5.643-5.507-1.5411-.77053-3.3088-1.3371-5.3031-1.6997-1.949-.36261-4.5552-.54391-7.8186-.54391h-10.47zm19.382 13.53h-35.224v-99.535h25.088c7.1614 0 12.442.38527 15.841 1.1558 3.4447.77053 6.3682 2.0396 8.7705 3.8074 3.0821 2.2663 5.4617 5.2351 7.1388 8.9065 1.7224 3.6714 2.5836 7.728 2.5836 12.17 0 5.3031-1.2238 9.745-3.6714 13.326-2.4476 3.5354-6.0056 6.0056-10.674 7.4107 5.8017.90651 10.357 3.5581 13.666 7.9546 3.3541 4.3512 5.0311 9.8583 5.0311 16.521" fill="#2d8afb"/><path d="m518.76 146.58v30.088l15.842-15.842v-.7832h.78321l13.393-13.393c-1.532-.0465-3.1707-.0703-4.9297-.0703z" fill="#e4a8ca"/></g><g><path d="m631.14 160.31v68.984l-16.181 16.818v-85.801h-26.447v-13.734h68.94v13.734z" fill="#2d8afb"/><path d="m588.51 146.58v13.734h26.447v.0332l13.768-13.768z" fill="#e4a8ca"/></g><g><g><path d="m252.37 214.26s33.128-49.171 103.57-110.36c51.552-44.781 113.05-80.427 144.11-90.599 15.979-5.2327 22.432-8.3507 36.158-8.3981 13.014-.04487 14.79 2.0558 19.143 4.7624 5.9668 3.7103 10.428 12.324 10.428 20.136 0 11.687-2.2507 22.899-16.253 43.067-16.024 20.941-15.378 20.597-3.5827.02533 9.3376-14.203 16.974-37.401 13.078-47.638-6.5168-17.122-34.664-18.643-78.546 3.8785-40.616 20.845-89.067 49.674-163.03 119.53-23.239 21.949-62.905 76.147-62.905 76.147z" fill="#2d8afb"/><g transform="matrix(.13333 0 0 -.13333 -550.47 1130.3)" fill="#2d8afb"><path d="m5981 7140.1c0-.1407-4.0813-25.121-9.0772-55.448-4.996-30.258-9.992-60.656-11.118-67.411l-1.9703-12.314-2.8146-.2109c-27.513-1.8297-63.611-10.344-92.532-21.954-42.149-16.818-83.736-45.738-114.42-79.584-45.246-49.819-72.97-110.05-80.78-175.49-.6333-4.9961-1.1962-10.414-1.2666-11.962l-.2111-2.8146-16.184-2.6035c-74.729-12.244-118.85-19.632-119.2-19.914-.1407-.2112-.1407-.4926.07-.7037.2814-.2815 50.312-8.6551 118.78-19.843l16.536-2.7443.2111-2.7443c.07-1.5482.6333-6.896 1.2666-11.962 5.9811-50.171 23.643-97.106 52.423-139.68 19.14-28.217 43.838-54.182 71.211-74.799 44.472-33.494 97.035-54.675 152.13-61.289 5.0664-.6333 10.414-1.1962 11.962-1.2666l2.8146-.2111 1.9703-12.314c8.3736-51.649 20.266-122.72 20.547-123 .211-.2112.4925-.2112.7036 0 .2815.2814 8.6551 50.312 19.843 118.78l2.7443 16.536 2.7443.2111c27.584 1.8296 63.611 10.344 92.532 21.954 42.149 16.818 83.736 45.738 114.42 79.584 45.246 49.819 72.97 110.05 80.78 175.49.6333 5.0663 1.1962 10.414 1.2666 11.962l.211 2.8147 12.314 1.9702c51.649 8.3735 122.72 20.266 123 20.547.2112.2111.2112.4925 0 .7037-.2814.2815-50.312 8.6551-118.78 19.843l-16.536 2.7443-.211 2.7443c-.07 1.5479-.6333 6.9662-1.2666 11.962-5.9812 50.171-23.643 97.106-52.423 139.68-19.14 28.217-43.838 54.182-71.211 74.8-44.472 33.494-97.035 54.674-152.13 61.289-4.996.6333-10.414 1.1963-11.962 1.2667l-2.8147.2109-1.9702 12.314c-1.1259 6.7552-6.1219 37.153-11.118 67.411-4.996 30.328-9.0773 55.308-9.0773 55.448 0 .1408-.2814.2815-.7036.2815-.3518 0-.7037-.1407-.7037-.2815zm-22.517-136.51c0-.1407-2.885-17.662-6.333-38.912-3.5183-21.18-7.9514-48.06-9.8512-59.671-1.8999-11.61-6.6145-40.39-10.555-63.963-3.8701-23.502-7.0366-43.416-7.0366-44.19 0-.985-.3518-1.2664-1.0555-.985-.6333.2112-37.646 26.598-82.329 58.615l-81.203 58.263 2.9554 3.0961c1.6184 1.6887 6.4737 6.1219 10.696 9.8512 50.804 44.753 114.27 71.985 180.84 77.684 1.5481.1408 3.0258.2815 3.3776.3519.2815.07.4926 0 .4926-.1408zm61.922-1.5479c49.186-5.7701 99.92-25.191 140.73-53.901 13.862-9.7807 31.313-24.135 39.194-32.298l2.9553-3.0961-81.273-58.263c-44.683-32.017-81.695-58.404-82.258-58.615-.7037-.2814-1.0555 0-1.0555.985 0 .7741-3.1665 20.688-7.0366 44.19-3.9406 23.573-8.6551 52.353-10.555 63.963-1.8999 11.61-6.333 38.49-9.8513 59.671-3.4479 21.251-6.333 38.701-6.333 38.842 0 .2111 4.6442-.2112 15.481-1.4776zm-202.02-173.17c31.383-43.838 57.278-80.147 57.489-80.78.2815-.7037 0-1.0556-.9851-1.0556-.774 0-23.502-3.6591-50.523-8.0921-27.091-4.5036-57.7-9.5698-68.185-11.259-10.414-1.6889-34.48-5.6292-53.338-8.7958-18.858-3.0961-34.409-5.6293-34.55-5.6293-.6333 0 1.9702 21.814 3.8701 32.368 1.9703 11.118 6.333 28.85 9.781 39.686 14.284 44.542 40.531 88.802 71.703 120.89 5.2071 5.4182 5.2071 5.4182 6.4033 3.8702.6333-.8444 26.88-37.364 58.334-81.203zm398.98 69.1c42.29-48.13 69.1-107.52 76.347-169.23 1.337-11.048 1.6888-15.48 1.4074-15.48-.1408 0-16.606 2.674-36.661 5.9812s-44.049 7.2476-53.338 8.7958c-9.2884 1.5479-38.983 6.4031-66.074 10.907-27.021 4.433-49.749 8.0921-50.523 8.0921-.9851 0-1.2666.3519-.9851 1.0556.2111.6331 26.598 37.646 58.615 82.328l58.263 81.203 3.0961-2.9554c1.6888-1.6183 6.1219-6.4034 9.8513-10.696zm-512.41-237.13c20.054-3.3072 44.049-7.2475 53.338-8.7958 9.2883-1.5479 38.983-6.4034 66.074-10.907 27.021-4.4329 49.749-8.0921 50.523-8.0921.9851 0 1.2666-.3519.9851-1.0556-.211-.6333-26.598-37.646-58.615-82.328l-58.263-81.203-3.0962 2.9554c-4.222 4.0811-15.621 17.169-21.602 24.769-35.113 44.682-58.052 99.779-64.596 155.16-1.3371 11.048-1.6889 15.481-1.4074 15.481.1407 0 16.606-2.6739 36.661-5.9812zm590.09 2.674c-3.659-40.602-13.51-75.925-31.172-111.74-13.018-26.458-27.091-47.568-46.512-69.662-3.7294-4.2221-8.1625-9.0773-9.8513-10.696l-3.0961-2.9554-58.263 81.203c-32.017 44.682-58.404 81.695-58.615 82.328-.2815.7037 0 1.0556.9851 1.0556.774 0 22.588 3.5184 48.482 7.7402 25.824 4.2925 62.556 10.344 81.484 13.44 18.999 3.0962 43.486 7.1775 54.534 9.0773 11.048 1.8297 20.547 3.3777 21.18 3.448.9851.07 1.1258-.4925.8444-3.2368zm-370.34-80.358c0-.7035 3.1665-20.617 7.0366-44.12 3.9405-23.573 8.6551-52.353 10.555-63.963 1.8998-11.61 6.3329-38.49 9.8512-59.671 3.448-21.251 6.333-38.701 6.333-38.842 0-.2112-4.7145.211-15.481 1.4776-61.782 7.3181-121.31 34.128-169.23 76.348-4.222 3.7292-9.0773 8.1624-10.696 9.8511l-2.9554 3.0962 81.695 58.615c44.964 32.158 81.977 58.545 82.328 58.545.2815 0 .563-.6334.563-1.3371zm197.38-57.56 81.203-58.263-2.9553-3.0962c-4.0813-4.2218-17.169-15.621-24.769-21.602-28.428-22.306-63.33-40.953-97.387-51.93-10.977-3.5887-28.006-7.8107-39.476-9.9217-11.399-2.0406-33.776-4.8552-33.776-4.1516 0 .1407 2.674 16.606 5.9812 36.661 3.3072 20.054 7.2477 44.049 8.7958 53.338 1.548 9.2884 6.4033 38.983 10.907 66.074 4.4331 27.021 8.0922 49.749 8.0922 50.523 0 .9852.3518 1.2667 1.0555.9852.6333-.2111 37.646-26.599 82.329-58.615z" fill="#2d8afb" stroke-width="0"/></g><path d="m536.2 4.9085c-13.725.04732-20.179 3.1658-36.158 8.3984-21.97 7.1944-59.168 27.167-97.301 54.066l-13.186 19.258c36.406-27.908 65.236-44.313 90.912-57.49 43.883-22.521 72.03-21.001 78.547-3.8789 3.896 10.236-3.7405 33.434-13.078 47.637-11.796 20.571-12.442 20.916 3.582-.02539 14.002-20.168 16.254-31.379 16.254-43.066 0-7.8111-4.463-16.425-10.43-20.135-4.3527-2.7066-6.1285-4.8085-19.143-4.7637z" fill="#e4a9cb"/></g><path d="m536.44 68.544 21.302 11.655-28.16 26.027z" fill="#e4a9cb"/></g></g></svg>
