<svg viewBox="0 0 138 22" xmlns="http://www.w3.org/2000/svg"><path d="m13.7539 17.9238-.4922 3.0762h-13.2206844l.4238284-2.7754 7.177736-6.7676c.41927-.4101.86588-.8659 1.33984-1.3672.48307-.50126.9069-1.03446 1.27148-1.59957.3737-.57421.6061-1.17578.6973-1.80468.0638-.48308.041-.93425-.0684-1.35352-.1094-.42838-.319-.7793-.6289-1.05273-.30989-.27344-.73828-.41472-1.28515-.42383-.65625-.01823-1.21224.14127-1.66797.47851-.45573.32813-.81575.76107-1.08008 1.29883-.25521.52865-.42382 1.08464-.50586 1.66797l-3.81445.02734c.08203-1.29427.46484-2.43359 1.14844-3.41796.69271-.99349 1.57682-1.76368 2.65234-2.31055 1.08464-.55599 2.26498-.820313 3.54102-.792969 1.13021.018229 2.14191.241539 3.03511.669919.8933.41927 1.5814 1.03906 2.0645 1.85938.4831.8112.6745 1.8138.5742 3.00781-.0729.82031-.2871 1.58594-.6426 2.29687-.3463.71094-.7838 1.38088-1.3125 2.00978-.5195.6289-1.0755 1.2259-1.6679 1.791-.5925.556-1.1667 1.0938-1.72269 1.6133l-4.00586 3.8418zm7.6016-8.58591 1.8867.02734c.6107-.01822 1.1621-.13671 1.6543-.35546.5013-.22787.9069-.56055 1.2168-.99805s.5013-.96615.5742-1.58594c.0638-.5013.0182-.9388-.1367-1.3125-.1459-.38281-.3874-.68359-.7246-.90234-.3373-.21875-.7611-.33268-1.2715-.3418-.5013-.00911-.957.08659-1.3672.28711-.401.19141-.7383.46484-1.0117.82031-.2735.35547-.4557.77474-.5469 1.25782l-3.8555.02734c.073-1.17578.4467-2.17383 1.1211-2.99414.6836-.82031 1.5358-1.44011 2.5567-1.85938 1.0208-.419268 2.0827-.624346 3.1855-.615231 1.1302.018229 2.1602.241541 3.0899.669921.9296.41927 1.6588 1.04362 2.1875 1.87305.5286.82031.7519 1.83659.6699 3.04883-.0456.83854-.278 1.57682-.6973 2.21484-.4193.62891-.957 1.15299-1.6133 1.57229-.6471.4192-1.3535.7383-2.1191.957-.7565.2096-1.513.3145-2.2695.3145l-2.8575-.0137zm-.4649 2.99411.3282-2.0371 2.4472.0137c.7748.0182 1.5176.1276 2.2285.3281.7201.2005 1.3535.5013 1.9004.9024.556.3919.9844.9023 1.2852 1.5312s.4284 1.3763.3828 2.2422c-.0638.9844-.319 1.8548-.7656 2.6113-.4375.7565-1.0118 1.3854-1.7227 1.8867-.7018.5013-1.4902.875-2.3652 1.1211-.8659.2461-1.7546.3646-2.666.3555-.8659-.0182-1.668-.1595-2.4063-.4238-.7292-.2735-1.3672-.6563-1.9141-1.1485-.5468-.4921-.9661-1.0891-1.2578-1.791-.2916-.7018-.4329-1.4993-.4238-2.3926l3.8145.0137c0 .5104.0957.9616.2871 1.3535.1914.392.4694.7019.834.9297.3737.2279.8248.3464 1.3535.3555.5924.0091 1.1347-.1048 1.6269-.3418s.8933-.5742 1.2031-1.0117c.3191-.4466.515-.9662.5879-1.5586.0821-.6198.0319-1.1393-.1504-1.5586-.1731-.4284-.4602-.7565-.8613-.9844-.401-.237-.9023-.3646-1.5039-.3828zm42.0274 6.836c-.0091-.6198.1959-1.1302.6152-1.5313.4284-.401.9479-.6015 1.5586-.6015.5833-.0092 1.0846.1731 1.5039.5468.4284.3646.6471.8477.6563 1.4492.0091.6198-.2006 1.1303-.629 1.5313-.4192.401-.9342.6016-1.5449.6016-.5833.0091-1.0892-.1687-1.5176-.5332-.4192-.3737-.6334-.8614-.6425-1.4629zm49.164-6.9043h-5.141l.479-2.81643 3.965.01367c.601 0 1.176-.08203 1.722-.2461.556-.17317 1.021-.45117 1.395-.83398.383-.39193.624-.91602.725-1.57227.082-.61979.027-1.10742-.165-1.46289-.191-.35547-.496-.61067-.916-.76562-.41-.16406-.897-.25065-1.462-.25977l-2.954-.01367-2.898 16.69336h-4.006l3.445-19.90625 6.536.01367c.856.00912 1.686.10938 2.488.30078.802.19141 1.513.49219 2.133.90235.62.41015 1.098.95247 1.435 1.62695.347.67448.488 1.50391.424 2.48828-.064 1.07552-.374 1.95964-.93 2.65234-.556.6836-1.267 1.19858-2.132 1.54488-.857.3464-1.778.5469-2.762.6016zm-1.627 8.7363h-6.207l2.106-3.1992 4.224.0137c.602 0 1.162-.1003 1.682-.3008.528-.2097.97-.5196 1.326-.9297.355-.4102.579-.9343.67-1.5723.082-.5377.059-1.0071-.068-1.4082-.128-.4101-.365-.7246-.711-.9433-.338-.2279-.789-.3555-1.354-.3829l-4.047-.0136.506-2.81643 4.648.01367.684 1.09376c.893.0456 1.668.2506 2.324.6152.666.3555 1.172.8613 1.518 1.5176s.487 1.4447.424 2.3652c-.091 1.4219-.506 2.5703-1.244 3.4453-.739.875-1.682 1.5131-2.831 1.9141-1.139.4011-2.356.597-3.65.5879zm21.438-19.90625-3.446 19.90625h-4.006l3.459-19.90625zm5.933 0-.56 3.21289h-15.764l.56-3.21289z" fill="#3287ff"/><path d="m45.9102 13.5625-.5332 3.0898h-13.9317l.2598-2.5839 10.1719-12.97465h3.2949l-4.3887 5.82422-5.127 6.63083zm-.0411-12.46875-3.4453 19.90625h-3.8418l3.459-19.90625zm6.125 10.81445-3.1308-.7793 2.666-10.03515h10.8965l-.5059 3.18555h-7.6699l-1.3262 4.44336c.4375-.26433.9069-.46029 1.4082-.58789.5104-.12761 1.0118-.19141 1.5039-.19141.948 0 1.7592.18229 2.4336.54687.6836.35547 1.2351.83855 1.6543 1.44922.4193.61065.711 1.31255.875 2.10545.1732.7839.2233 1.6087.1504 2.4746-.082.9844-.319 1.8959-.7109 2.7344-.3919.8294-.916 1.5495-1.5723 2.1602-.6471.6106-1.3991 1.08-2.2558 1.4082-.8568.3281-1.7865.483-2.7891.4648-.8477-.0182-1.6315-.1686-2.3516-.4512-.72-.2825-1.3489-.679-1.8867-1.1894-.5377-.5195-.957-1.1302-1.2578-1.832-.3008-.711-.4512-1.4948-.4512-2.3516h3.7871c.0274.4922.1231.9433.2871 1.3535.1641.401.4102.7246.7383.9707.3373.2461.7793.3783 1.3262.3965.5469.0091 1.0163-.0957 1.4082-.3145.3919-.2187.7201-.5195.9844-.9023s.4694-.8066.6152-1.2715c.1458-.4648.2415-.9297.2871-1.3945.0456-.4375.0365-.8613-.0273-1.2715-.0547-.4193-.1732-.793-.3555-1.1211s-.442-.5879-.7793-.7793c-.3372-.1914-.7565-.2917-1.2578-.3008-.5286-.0091-1.0208.0775-1.4766.2598-.4466.1823-.8522.4557-1.2168.8203zm31.5137 5.8926-.5605 3.1992h-9.7481l.5606-3.1992zm-5.5371-16.70705-3.459 19.90625h-4.0058l3.4453-19.90625zm23.4743 9.50195-1.244 7.9023c-.5923.7201-1.3306 1.2852-2.2147 1.6954-.875.401-1.8001.6836-2.7754.8476-.9752.1641-1.9049.237-2.789.2188-1.3581-.0183-2.5157-.2917-3.4727-.8203-.9479-.5378-1.7044-1.2579-2.2695-2.1602-.556-.9023-.9297-1.9186-1.1211-3.0488-.1914-1.1394-.2096-2.3243-.0547-3.5547l.1777-1.2442c.1732-1.276.5059-2.4928.9981-3.65035.4922-1.16667 1.1348-2.20117 1.9277-3.10352.793-.91145 1.7409-1.62239 2.8438-2.13281 1.1028-.51953 2.3561-.765623 3.7597-.738279 1.4037.027343 2.5977.300779 3.5821.820309.9843.51953 1.75 1.26693 2.297 2.24219.556.96615.879 2.14193.971 3.52734l-3.8559-.01367c-.0456-.65625-.1778-1.23502-.3965-1.73633-.2188-.5013-.5469-.89322-.9844-1.17578-.4375-.28255-1.0117-.4375-1.7226-.46484-.875-.03646-1.627.13672-2.2559.51953s-1.1575.89779-1.5859 1.54492c-.4193.63802-.752 1.33985-.9981 2.10547-.2461.75651-.4193 1.49935-.5195 2.22852l-.1777 1.2852c-.0821.6653-.1231 1.3671-.1231 2.1054.0091.7292.1139 1.4173.3145 2.0645.2096.638.5559 1.1621 1.039 1.5722.4831.4011 1.1576.6107 2.0235.6289.4192.0092.8294-.0182 1.2304-.082.4011-.0638.7884-.1686 1.1621-.3144.3737-.155.7246-.3555 1.0528-.6016l.6836-3.541h-3.6368l.5059-2.9258z" fill="#ff4b8c"/></svg>
